<?xml version="1.0" encoding="UTF-8"?>
<svg version="1.1" xmlns="http://www.w3.org/2000/svg" width="408" height="410">
<path d="M0 0 C4.46605017 0.88536957 7.26421762 3.39629525 10.6875 6.25 C12.03772264 7.3532044 13.38933673 8.45470753 14.7421875 9.5546875 C15.7935791 10.41078613 15.7935791 10.41078613 16.86621094 11.28417969 C20.29968633 14.04510247 23.80375601 16.7108177 27.3125 19.375 C35.49066338 25.59820534 43.60727744 31.89776488 51.71191406 38.21630859 C55.57722341 41.22953417 59.44451873 44.24020532 63.3125 47.25 C64.44546509 48.1315979 64.44546509 48.1315979 65.60131836 49.03100586 C70.9175205 53.16492467 76.25194173 57.27421789 81.59375 61.375 C86.52854536 65.17099643 91.43545131 69.00298039 96.34765625 72.828125 C100.72144077 76.23242429 105.10358707 79.62497594 109.5 83 C114.5768287 86.89839293 119.63579946 90.81910342 124.6875 94.75 C125.44861084 95.34224365 126.20972168 95.9344873 126.99389648 96.54467773 C130.84872941 99.54512855 134.70220877 102.54730849 138.5546875 105.55078125 C147.89803402 112.83175741 157.27597617 120.06479664 166.69726562 127.24462891 C169.18988211 129.14474686 171.68091055 131.04693566 174.171875 132.94921875 C184.02170289 140.46746653 193.89633221 147.95022293 203.82080078 155.36962891 C208.21712139 158.65874262 212.60799629 161.95512556 217 165.25 C218.72914793 166.54689999 220.45831294 167.84377719 222.1875 169.140625 C223.45833333 170.09375 224.72916667 171.046875 226 172 C221.9637069 176.24956103 217.58111224 179.80836554 212.9375 183.375 C211.76634644 184.28040527 211.76634644 184.28040527 210.5715332 185.20410156 C203.79832703 190.42386937 196.96052469 195.55677035 190.11083984 200.67553711 C184.54593167 204.83432867 179.02132115 209.03807646 173.5234375 213.28515625 C162.02143546 222.16251747 150.44184521 230.93991819 138.80615234 239.64111328 C131.94265562 244.77964338 125.14083499 249.99795902 118.33496094 255.21240234 C106.95106478 263.92767709 95.55618154 272.62826924 84.06030273 281.19555664 C83.46290283 281.6414917 82.86550293 282.08742676 82.25 282.546875 C81.41275391 283.1665918 81.41275391 283.1665918 80.55859375 283.79882812 C79.09022682 284.9304643 77.69762869 286.15850471 76.3125 287.390625 C74 289 74 289 72.05908203 288.73999023 C68.55816896 287.48183663 65.79143783 285.06544733 62.875 282.8125 C61.83025513 282.01706787 61.83025513 282.01706787 60.7644043 281.20556641 C58.50292769 279.47887639 56.25025457 277.74128547 54 276 C52.86280518 275.12045654 52.86280518 275.12045654 51.70263672 274.22314453 C47.14505409 270.69297705 42.59853458 267.14875589 38.05419922 263.6015625 C27.7986718 255.6058102 17.41738135 247.7829473 7 240 C8.26996655 236.19010035 9.75904244 235.45884172 13 233.125 C14.10623594 232.31745616 15.21165925 231.50879831 16.31640625 230.69921875 C16.91340332 230.26399902 17.51040039 229.8287793 18.12548828 229.38037109 C21.43152846 226.94583721 24.68148484 224.43830902 27.9375 221.9375 C29.39433855 220.82136301 30.85137622 219.7054859 32.30859375 218.58984375 C33.06640137 218.00960449 33.82420898 217.42936523 34.60498047 216.83154297 C38.89855914 213.54811512 43.19961648 210.27450701 47.5 207 C58.15498411 198.88597997 58.15498411 198.88597997 68.79077148 190.74682617 C72.45633354 187.93593113 76.1351091 185.14456113 79.83203125 182.375 C80.62319336 181.77905029 81.41435547 181.18310059 82.22949219 180.5690918 C83.75622417 179.41956934 85.2866939 178.27499032 86.82128906 177.13598633 C87.50030273 176.62318115 88.17931641 176.11037598 88.87890625 175.58203125 C89.78491577 174.90491089 89.78491577 174.90491089 90.70922852 174.21411133 C91.13518311 173.81345459 91.5611377 173.41279785 92 173 C92 172.34 92 171.68 92 171 C90.2003503 169.48077517 88.39519662 168.07942605 86.5 166.6875 C81.26099551 162.75369446 76.13101026 158.7136579 71.0625 154.5625 C63.78086325 148.61342192 56.41189533 142.78551373 49 137 C46.70694207 135.21010449 44.4150497 133.4187431 42.125 131.625 C41.55104492 131.17552002 40.97708984 130.72604004 40.38574219 130.26293945 C37.27460636 127.81742794 34.187315 125.34627537 31.125 122.83984375 C30.45839355 122.29440918 29.79178711 121.74897461 29.10498047 121.18701172 C27.86183156 120.16704713 26.62092094 119.1443419 25.38330078 118.11767578 C24.78501465 117.62638184 24.18672852 117.13508789 23.5703125 116.62890625 C22.58865112 115.78598022 22.58865112 115.78598022 21.5871582 114.92602539 C19.40488071 113.30141587 17.39066074 112.12240499 14.99682617 110.86889648 C9.4491764 107.73915817 4.21403345 104.59318937 2.08874512 98.302948 C0.62144112 90.24803665 0.91846649 82.09031782 1.0625 73.9375 C1.05076985 71.35233036 1.03133359 68.7671848 1.00439453 66.18212891 C0.95973358 60.96582791 0.95545389 55.75203634 0.98583984 50.53564453 C1.03017226 40.58055468 0.74254605 30.63885361 0.45309448 20.68899536 C0.32987045 16.2488373 0.23782924 11.8081365 0.1484375 7.3671875 C0.13299393 6.61074448 0.11755035 5.85430145 0.10163879 5.07493591 C0.06729514 3.38329997 0.0335656 1.69165156 0 0 Z M6 10 C5.88071384 28.59579407 5.89530412 47.18145861 6.60253906 65.7668457 C6.6569773 67.205238 6.71134079 68.64363313 6.765625 70.08203125 C6.80529388 71.11654167 6.80529388 71.11654167 6.84576416 72.17195129 C6.98602534 76.21658522 6.9647427 80.21890489 6.796875 84.26171875 C6.32758394 92.33708086 6.32758394 92.33708086 9.15917969 99.66357422 C12.32807115 102.96724439 16.05410267 105.30009093 19.94140625 107.67089844 C23.55227525 110.00220428 26.77293936 112.80547803 30.0625 115.5625 C34.81622336 119.4562476 39.61402185 123.27361122 44.5 127 C50.08673958 131.26083847 55.54244247 135.66458615 60.98388672 140.10888672 C67.00847069 145.02364088 73.10970688 149.83367136 79.23828125 154.61767578 C81.11380003 156.08929265 82.97950263 157.57272858 84.84375 159.05859375 C85.47651855 159.56116699 86.10928711 160.06374023 86.76123047 160.58154297 C87.97078111 161.54265565 89.1782676 162.50637395 90.38330078 163.47314453 C93.1372618 165.65536018 95.7635883 167.60281739 99 169 C99.76699219 168.3915625 100.53398437 167.783125 101.32421875 167.15625 C108.59778543 161.40505774 115.93288779 155.73948329 123.3125 150.125 C124.20211426 149.44791992 125.09172852 148.77083984 126.00830078 148.07324219 C130.32990428 144.7860359 134.65514509 141.50371699 138.984375 138.2265625 C140.51045151 137.06775422 142.03649497 135.90890241 143.5625 134.75 C144.25835205 134.2255127 144.9542041 133.70102539 145.67114258 133.16064453 C149.01205962 130.6200644 152.12197011 128.07575713 155 125 C146.60255751 118.21603991 138.13883733 111.53567549 129.54882812 104.99707031 C122.08581359 99.31400829 114.68592055 93.55119754 107.28808594 87.78369141 C103.42277659 84.77046583 99.55548127 81.75979468 95.6875 78.75 C94.93218994 78.16226807 94.17687988 77.57453613 93.39868164 76.96899414 C88.0824795 72.83507533 82.74805827 68.72578211 77.40625 64.625 C72.47145464 60.82900357 67.56454869 56.99701961 62.65234375 53.171875 C58.27855923 49.76757571 53.89641293 46.37502406 49.5 43 C44.4231699 39.101606 39.3643452 35.18071234 34.3125 31.25 C33.56299072 30.66718262 32.81348145 30.08436523 32.04125977 29.48388672 C27.98307297 26.32680098 23.93006601 23.16327903 19.8828125 19.9921875 C19.05483154 19.34475586 18.22685059 18.69732422 17.3737793 18.03027344 C15.77212113 16.77770902 14.17197636 15.52320656 12.57348633 14.26660156 C11.85700928 13.70682617 11.14053223 13.14705078 10.40234375 12.5703125 C9.76804443 12.07289551 9.13374512 11.57547852 8.48022461 11.06298828 C7.16835137 9.902783 7.16835137 9.902783 6 10 Z " fill="#1262AD" transform="translate(182,1)"/>
<path d="M0 0 C3.92782949 2.47222209 7.53266717 5.27666777 11.15625 8.171875 C12.77451229 9.44820491 14.39300318 10.72424502 16.01171875 12 C16.80368652 12.62712891 17.5956543 13.25425781 18.41162109 13.90039062 C21.41065719 16.26726097 24.43566535 18.59890232 27.46875 20.921875 C28.49613281 21.71078125 29.52351562 22.4996875 30.58203125 23.3125 C32.10376953 24.48039062 32.10376953 24.48039062 33.65625 25.671875 C34.73319558 26.49984047 35.81001665 27.32796792 36.88671875 28.15625 C37.42643311 28.57140869 37.96614746 28.98656738 38.5222168 29.41430664 C39.60342502 30.24641535 40.68432191 31.07892876 41.76489258 31.91186523 C44.56403396 34.06841374 47.36997747 36.21516324 50.1875 38.34765625 C50.76822266 38.78916016 51.34894531 39.23066406 51.94726562 39.68554688 C53.55671384 40.90872752 55.16889356 42.12831169 56.78125 43.34765625 C59.63047058 45.6510343 62.11940584 48.03710119 64.65625 50.671875 C50.29503243 61.73625653 35.88639914 72.73811343 21.46386719 83.72241211 C15.25862465 88.44905282 9.05434326 93.17697016 2.86547852 97.92504883 C-0.80008354 100.73594387 -4.4788591 103.52731387 -8.17578125 106.296875 C-8.96694336 106.89282471 -9.75810547 107.48877441 -10.57324219 108.1027832 C-12.09997417 109.25230566 -13.6304439 110.39688468 -15.16503906 111.53588867 C-15.84405273 112.04869385 -16.52306641 112.56149902 -17.22265625 113.08984375 C-18.12866577 113.76696411 -18.12866577 113.76696411 -19.05297852 114.45776367 C-19.47893311 114.85842041 -19.9048877 115.25907715 -20.34375 115.671875 C-20.57807431 117.74082963 -20.57807431 117.74082963 -19.05297852 118.9777832 C-18.44897217 119.47109131 -17.84496582 119.96439941 -17.22265625 120.47265625 C-16.54332031 121.03082031 -15.86398438 121.58898437 -15.1640625 122.1640625 C-14.41898438 122.76476562 -13.67390625 123.36546875 -12.90625 123.984375 C-11.75576172 124.92216797 -11.75576172 124.92216797 -10.58203125 125.87890625 C-4.72068138 130.62928131 1.25273732 135.22080139 7.27050781 139.77026367 C13.13586923 144.22321909 18.82074129 148.8714084 24.4855957 153.57543945 C30.5507306 158.60665674 36.7192924 163.49143891 42.93701172 168.33203125 C45.93282815 170.66674306 48.91927447 173.01337081 51.90625 175.359375 C52.43629639 175.77469482 52.96634277 176.19001465 53.51245117 176.61791992 C54.57154718 177.44903746 55.62155498 178.29187684 56.66178894 179.14648438 C58.68283579 180.74911541 58.68283579 180.74911541 61.14041138 182.17683411 C65.26177714 184.89659747 68.14850018 186.99488477 69.6138916 191.83476257 C70.00603336 195.7121321 70.09552132 199.53098164 70.0703125 203.421875 C70.096662 204.88085987 70.12730496 206.33977269 70.16195679 207.79858398 C70.24155713 211.64668663 70.2620026 215.49290798 70.27001953 219.34173584 C70.28830663 223.13601047 70.36358919 226.92904831 70.43359375 230.72265625 C70.58618858 239.70562697 70.63653154 248.68773519 70.65625 257.671875 C70.65805771 258.4440033 70.65986542 259.21613159 70.66172791 260.01165771 C70.68326205 269.89845155 70.68111489 279.78508493 70.65625 289.671875 C67.27575215 287.44635065 63.95179817 285.20736412 60.765625 282.7109375 C60.06526123 282.16405273 59.36489746 281.61716797 58.64331055 281.05371094 C57.90508057 280.47395508 57.16685059 279.89419922 56.40625 279.296875 C54.80342072 278.04422566 53.20055508 276.79162284 51.59765625 275.5390625 C50.78055176 274.89936523 49.96344727 274.25966797 49.12158203 273.60058594 C45.20135666 270.53366374 41.27277874 267.47750604 37.34375 264.421875 C36.58932617 263.83486816 35.83490234 263.24786133 35.05761719 262.64306641 C30.76696121 259.30641068 26.46724863 255.98220268 22.15625 252.671875 C13.1709748 245.77226594 4.24182012 238.80036381 -4.69628906 231.83984375 C-13.09236519 225.3021738 -21.4966771 218.77669864 -29.9375 212.296875 C-34.87229536 208.50087857 -39.77920131 204.66889461 -44.69140625 200.84375 C-50.09634414 196.63686095 -55.5199864 192.45556791 -60.953125 188.28515625 C-65.01413179 185.16139863 -69.05245414 182.00855919 -73.09375 178.859375 C-81.04169972 172.66974732 -89.02873054 166.53329594 -97.04101562 160.42724609 C-99.53363211 158.52712814 -102.02466055 156.62493934 -104.515625 154.72265625 C-112.51961458 148.61352436 -120.5313486 142.51626814 -128.59375 136.484375 C-129.85943369 135.53393232 -131.1250587 134.58341149 -132.390625 133.6328125 C-134.4810982 132.06335938 -136.57576929 130.50033605 -138.67773438 128.94628906 C-141.07267163 127.17557441 -143.45860985 125.39325485 -145.84375 123.609375 C-146.96765137 122.78626831 -146.96765137 122.78626831 -148.11425781 121.9465332 C-148.79842773 121.43179443 -149.48259766 120.91705566 -150.1875 120.38671875 C-150.79787109 119.93417725 -151.40824219 119.48163574 -152.03710938 119.01538086 C-153.34375 117.671875 -153.34375 117.671875 -153.34375 114.671875 C-151.88183594 113.18896484 -151.88183594 113.18896484 -149.828125 111.6328125 C-148.70313599 110.76970459 -148.70313599 110.76970459 -147.55541992 109.88916016 C-146.33689331 108.977229 -146.33689331 108.977229 -145.09375 108.046875 C-144.26399658 107.41442871 -143.43424316 106.78198242 -142.5793457 106.13037109 C-140.17467038 104.30110774 -137.76102705 102.48443807 -135.34375 100.671875 C-133.79494141 99.50398438 -133.79494141 99.50398438 -132.21484375 98.3125 C-130.37913777 96.93371647 -128.54044833 95.55889859 -126.69921875 94.1875 C-122.22082344 90.84236143 -117.78638927 87.43924589 -113.34375 84.046875 C-106.20245795 78.59587889 -99.03741525 73.17855811 -91.84375 67.796875 C-85.4778829 63.03332177 -79.14403564 58.23517107 -72.8515625 53.375 C-60.42007046 43.78057046 -47.89057065 34.31499654 -35.31787109 24.90673828 C-30.65954154 21.41787163 -26.01756238 17.91014232 -21.40625 14.359375 C-19.90771484 13.21275391 -19.90771484 13.21275391 -18.37890625 12.04296875 C-16.16649928 10.31461479 -13.99725454 8.56372563 -11.83984375 6.76953125 C-11.25517334 6.29362549 -10.67050293 5.81771973 -10.06811523 5.32739258 C-8.9472261 4.41376399 -7.83780537 3.48581692 -6.74243164 2.54174805 C-3.06073609 -0.42850305 -3.06073609 -0.42850305 0 0 Z M-33.09375 124.171875 C-39.22662283 129.03646294 -45.4242857 133.80999137 -51.65625 138.546875 C-52.54594482 139.22322998 -53.43563965 139.89958496 -54.35229492 140.59643555 C-56.1416705 141.95650366 -57.93113917 143.3164493 -59.72070312 144.67626953 C-64.49314719 148.30712934 -69.25389767 151.95326949 -74.01489258 155.59912109 C-74.66095459 156.0936377 -75.3070166 156.5881543 -75.97265625 157.09765625 C-76.56191895 157.55092285 -77.15118164 158.00418945 -77.75830078 158.47119141 C-79.08686251 159.47733039 -80.44462353 160.44475451 -81.80859375 161.40234375 C-82.31519531 161.82128906 -82.82179688 162.24023438 -83.34375 162.671875 C-83.34375 163.331875 -83.34375 163.991875 -83.34375 164.671875 C-81.77333187 165.98979453 -80.13183495 167.2230116 -78.46875 168.421875 C-77.35814141 169.23399277 -76.24884847 170.04791173 -75.140625 170.86328125 C-74.22700195 171.53447998 -74.22700195 171.53447998 -73.29492188 172.21923828 C-69.72602118 174.8762652 -66.22545287 177.6211034 -62.71875 180.359375 C-61.95812256 180.95234375 -61.19749512 181.5453125 -60.41381836 182.15625 C-58.8464016 183.37838691 -57.27926556 184.60088395 -55.71240234 185.82373047 C-51.82128208 188.85978287 -47.92657058 191.8912145 -44.03125 194.921875 C-43.27634277 195.50928467 -42.52143555 196.09669434 -41.74365234 196.7019043 C-36.4270703 200.83618364 -31.09222161 204.94577558 -25.75 209.046875 C-20.81520464 212.84287143 -15.90829869 216.67485539 -10.99609375 220.5 C-6.62230923 223.90429929 -2.24016293 227.29685094 2.15625 230.671875 C11.1415252 237.57148406 20.07067988 244.54338619 29.00878906 251.50390625 C46.4546875 267.99938409 46.4546875 267.99938409 65.65625 278.671875 C65.6675137 272.84228471 65.66510657 267.01282207 65.65716553 261.18322754 C65.65653243 258.75508411 65.66010088 256.32693727 65.66705322 253.89880371 C65.68881022 246.16543835 65.66204008 238.43574258 65.54750252 230.70310593 C65.49424487 226.98329112 65.46594403 223.26656264 65.49145508 219.54638672 C66.46751832 202.52816346 66.46751832 202.52816346 60.86401367 187.37548828 C57.82111711 184.46663063 54.39577976 182.59217407 50.65625 180.671875 C48.48048639 179.12423783 46.42828912 177.46953346 44.34375 175.796875 C43.25974645 174.97182541 42.17526831 174.14739799 41.08984375 173.32421875 C37.29451426 170.41802415 33.60241346 167.39001305 29.90625 164.359375 C24.4258412 159.87018815 18.86851379 155.50823909 13.21875 151.234375 C6.62795575 146.2442346 0.21591344 141.07268312 -6.14428711 135.79272461 C-10.83345138 131.90365414 -15.55949697 128.0684663 -20.34375 124.296875 C-21.23453247 123.59087158 -21.23453247 123.59087158 -22.14331055 122.87060547 C-27.55809716 118.62368236 -28.05976828 120.14272624 -33.09375 124.171875 Z " fill="#1262AD" transform="translate(154.34375,120.328125)"/>
</svg>
